<?xml version="1.0" encoding="UTF-8"?>
<svg width="350px" height="350px" viewBox="0 0 350 350" version="1.1" xmlns="http://www.w3.org/2000/svg" xmlns:xlink="http://www.w3.org/1999/xlink">
    <!-- Generator: Sketch 57.1 (83088) - https://sketch.com -->
    <title>Pickup &amp; Drop Any Where</title>
    <desc>Created with Sketch.</desc>
    <defs>
        <linearGradient x1="50%" y1="76.7549391%" x2="50%" y2="-32.7028163%" id="linearGradient-1">
            <stop stop-color="#FFFFFF" offset="0%"></stop>
            <stop stop-color="#333333" offset="100%"></stop>
        </linearGradient>
        <linearGradient x1="-278.027712%" y1="322.791955%" x2="-383.548852%" y2="411.620614%" id="linearGradient-2">
            <stop stop-color="#475CB5" offset="0%"></stop>
            <stop stop-color="#2E3F87" offset="100%"></stop>
        </linearGradient>
        <linearGradient x1="49.9993055%" y1="-25.5574614%" x2="49.9993055%" y2="164.641019%" id="linearGradient-3">
            <stop stop-color="#808080" offset="0%"></stop>
            <stop stop-color="#656565" offset="11%"></stop>
            <stop stop-color="#414141" offset="29%"></stop>
            <stop stop-color="#242424" offset="47%"></stop>
            <stop stop-color="#101010" offset="65%"></stop>
            <stop stop-color="#040404" offset="82%"></stop>
            <stop stop-color="#000000" offset="100%"></stop>
        </linearGradient>
        <linearGradient x1="13.2454636%" y1="0%" x2="86.7545364%" y2="100%" id="linearGradient-4">
            <stop stop-color="#000000" offset="0%"></stop>
            <stop stop-color="#4DA2CC" offset="100%"></stop>
        </linearGradient>
        <linearGradient x1="45.340877%" y1="25.4218223%" x2="69.6545724%" y2="105.549306%" id="linearGradient-5">
            <stop stop-color="#07234A" offset="0%"></stop>
            <stop stop-color="#020B17" offset="100%"></stop>
        </linearGradient>
        <linearGradient x1="516.889025%" y1="-404.075188%" x2="513.885354%" y2="-310.061654%" id="linearGradient-6">
            <stop stop-color="#475CB5" offset="0%"></stop>
            <stop stop-color="#2E3F87" offset="100%"></stop>
        </linearGradient>
        <linearGradient x1="-277.837988%" y1="322.791955%" x2="-383.298098%" y2="411.620614%" id="linearGradient-7">
            <stop stop-color="#475CB5" offset="0%"></stop>
            <stop stop-color="#2E3F87" offset="100%"></stop>
        </linearGradient>
        <linearGradient x1="-217.928092%" y1="322.791955%" x2="-304.11617%" y2="411.620614%" id="linearGradient-8">
            <stop stop-color="#475CB5" offset="0%"></stop>
            <stop stop-color="#2E3F87" offset="100%"></stop>
        </linearGradient>
    </defs>
    <g id="Pickup-&amp;-Drop-Any-Where" stroke="none" stroke-width="1" fill="none" fill-rule="evenodd">
        <g id="Group-25" transform="translate(8.000000, 42.000000)" fill-rule="nonzero">
            <g id="Group-16" transform="translate(0.712831, 12.118126)">
                <path d="M154.826031,244.021714 L154.826031,244.021714 C153.10155,244.021714 151.392466,243.952427 149.760369,243.821551 C149.292679,243.772902 148.950203,243.358506 148.990511,242.890024 C149.043022,242.424414 149.454872,242.084042 149.922039,242.120166 C151.515644,242.251042 153.170837,242.312631 154.849126,242.312631 L154.849126,242.312631 C156.55821,242.312631 158.336581,242.243343 160.138047,242.112468 C160.605001,242.072328 161.017152,242.415787 161.061876,242.882325 C161.09367,243.346617 160.754432,243.753702 160.292018,243.806154 C158.398169,243.952427 156.573607,244.021714 154.826031,244.021714 Z M170.446438,242.420411 C170.001903,242.420128 169.630442,242.081931 169.588578,241.639371 C169.546714,241.196811 169.84817,240.79496 170.284768,240.711327 C173.518169,240.095441 176.882446,239.287091 180.292915,238.309372 C180.75211,238.177566 181.231211,238.442967 181.363017,238.902162 C181.494823,239.361357 181.229421,239.840458 180.770226,239.972264 C177.305868,240.957681 173.880002,241.781429 170.608108,242.405013 C170.555054,242.416761 170.500756,242.421932 170.446438,242.420411 L170.446438,242.420411 Z M139.65214,241.927702 C139.56804,241.941771 139.482187,241.941771 139.398087,241.927702 C136.003917,240.903967 132.775608,239.394829 129.813362,237.447131 C129.41615,237.185421 129.305915,236.651471 129.567008,236.253852 C129.83163,235.855678 130.367976,235.745658 130.767985,236.007498 C133.59271,237.861927 136.670584,239.298441 139.906193,240.272508 C140.362087,240.416352 140.616497,240.901106 140.475888,241.358007 C140.351293,241.711318 140.011096,241.942277 139.636743,241.927702 L139.65214,241.927702 Z M190.424239,236.792753 C189.999748,236.799879 189.633238,236.496944 189.560333,236.0787 C189.487429,235.660456 189.729827,235.251381 190.131693,235.114463 C193.265013,233.967376 196.490715,232.681714 199.724117,231.265176 C199.934322,231.17244 200.172845,231.167431 200.386757,231.251262 C200.60067,231.335092 200.77228,231.500829 200.863506,231.711693 C201.051159,232.151775 200.848239,232.660796 200.40929,232.851083 C197.152793,234.26762 193.888597,235.568679 190.724483,236.70037 C190.626549,236.752068 190.519196,236.783488 190.408842,236.792753 L190.424239,236.792753 Z M122.722975,230.541521 C122.455875,230.542201 122.203262,230.420152 122.037802,230.210471 C119.872359,227.407216 118.107837,224.316063 116.795073,221.026072 C116.620308,220.583925 116.832873,220.08337 117.272384,219.90208 C117.484505,219.813812 117.723233,219.814677 117.934708,219.904482 C118.146182,219.994286 118.312586,220.165463 118.396376,220.379392 C119.652479,223.516473 121.33646,226.464736 123.40045,229.14037 C123.608146,229.399773 123.648288,229.755445 123.503634,230.054616 C123.35898,230.353787 123.055278,230.543205 122.722975,230.541521 L122.722975,230.541521 Z M209.478211,228.555278 C209.149698,228.555026 208.850413,228.366477 208.708353,228.070268 C208.496662,227.645024 208.668783,227.128663 209.093282,226.915482 C212.118822,225.375767 215.198251,223.78986 218.239188,222.088475 C218.658209,221.858695 219.18413,222.00994 219.41707,222.427213 C219.647421,222.841924 219.499497,223.364817 219.086031,223.597396 C216.006602,225.30648 212.927172,226.946276 209.847742,228.462895 C209.728432,228.523394 209.596585,228.555037 209.462813,228.555278 L209.478211,228.555278 Z M227.585258,218.431713 C227.195918,218.436256 226.851802,218.179356 226.745548,217.804768 C226.639295,217.430179 226.797271,217.030858 227.131042,216.830349 C230.033404,215.04428 232.966561,213.158129 235.830431,211.225787 C236.021049,211.097216 236.255123,211.050104 236.480638,211.094918 C236.706154,211.139732 236.90443,211.27276 237.031408,211.464443 C237.16033,211.652905 237.208465,211.885125 237.165075,212.109304 C237.121686,212.333483 236.990382,212.530973 236.800451,212.657722 C233.905787,214.605461 230.964932,216.507009 228.039473,218.300777 C227.90227,218.383719 227.745559,218.428873 227.585258,218.431713 L227.585258,218.431713 Z M114.516295,211.633811 C114.130937,211.635103 113.791509,211.380532 113.684849,211.010227 C112.70713,207.607457 111.652425,204.304768 110.551529,201.209942 C110.392086,200.75925 110.62819,200.264639 111.078881,200.105196 C111.529573,199.945753 112.024184,200.181857 112.183627,200.632548 C113.292221,203.765868 114.354625,207.091652 115.347741,210.532915 C115.476655,210.991777 115.21233,211.468936 114.754951,211.603017 C114.685997,211.632598 114.613563,211.653293 114.539391,211.664606 L114.516295,211.633811 Z M244.837763,206.883791 C244.474943,206.873346 244.157515,206.636801 244.043768,206.292114 C243.930021,205.947428 244.044316,205.568415 244.329657,205.344076 C247.108842,203.311652 249.880329,201.202243 252.57483,199.062039 C252.948989,198.764413 253.493579,198.826455 253.791205,199.200614 C254.088831,199.574772 254.02679,200.119362 253.652631,200.416988 C250.935034,202.572589 248.140451,204.697396 245.353567,206.737518 C245.201545,206.83985 245.020873,206.891085 244.837763,206.883791 Z M261.127946,193.965583 C260.753764,193.981807 260.4119,193.754618 260.281933,193.403357 C260.151966,193.052096 260.263623,192.657104 260.558252,192.425868 C263.175767,190.177884 265.770187,187.860613 268.256826,185.497151 C268.482362,185.286743 268.803017,185.212639 269.098004,185.302755 C269.392991,185.39287 269.617494,185.633514 269.686945,185.934038 C269.756396,186.234562 269.660244,186.549309 269.434708,186.759717 C266.924973,189.06929 264.315156,191.432752 261.682244,193.688434 C261.535307,193.841182 261.338833,193.936691 261.127946,193.957884 L261.127946,193.965583 Z M107.579879,192.218007 C107.247768,192.208021 106.949771,192.011343 106.810022,191.709901 C105.370388,188.468801 103.822975,185.389371 102.190877,182.556296 C102.038228,182.288128 102.04024,181.958894 102.196155,181.692612 C102.35207,181.42633 102.638202,181.263455 102.946766,181.265325 C103.255331,181.267227 103.53945,181.433586 103.692099,181.701754 C105.331895,184.588719 106.902405,187.714341 108.365134,191.001632 C108.559823,191.439592 108.363602,191.952522 107.926315,192.148719 C107.815849,192.191254 107.698237,192.212163 107.579879,192.210308 L107.579879,192.218007 Z M276.294138,179.815603 C275.948465,179.810252 275.638764,179.600725 275.505205,179.281851 C275.371645,178.962978 275.439576,178.59528 275.678252,178.345175 C278.126399,175.858536 280.512957,173.325705 282.776338,170.81597 C283.093289,170.461341 283.637541,170.43034 283.992713,170.746683 C284.348257,171.066341 284.379201,171.613017 284.062,171.970756 C281.752427,174.503587 279.373568,177.059514 276.910024,179.553852 C276.748062,179.719126 276.525521,179.810924 276.294138,179.807905 L276.294138,179.815603 Z M97.3176795,174.341936 C97.0446385,174.343765 96.787154,174.215023 96.6248078,173.995481 C94.5981376,171.263924 92.3668258,168.690323 89.9501438,166.296906 C89.787465,166.13634 89.6958934,165.917293 89.6958934,165.688719 C89.6958934,165.460145 89.787465,165.241098 89.9501438,165.080532 C90.1120317,164.917394 90.3323506,164.825638 90.5621804,164.825638 C90.7920103,164.825638 91.0123292,164.917394 91.1742171,165.080532 C93.6573238,167.528328 95.9480217,170.163917 98.0259483,172.963872 C98.1631531,173.147488 98.2215998,173.378179 98.188375,173.604975 C98.1551502,173.831771 98.0329885,174.036003 97.8488811,174.172548 C97.6950154,174.284606 97.5078841,174.341559 97.3176795,174.334218 L97.3176795,174.341936 Z M290.166969,164.33377 C289.833141,164.334905 289.528653,164.143239 289.38532,163.841745 C289.241987,163.540251 289.285567,163.183111 289.497193,162.924931 C291.706684,160.215033 293.823792,157.451244 295.794627,154.733648 C295.976156,154.484733 296.27669,154.351571 296.58302,154.384323 C296.889351,154.417074 297.154939,154.610763 297.279741,154.892428 C297.404543,155.174094 297.369598,155.500945 297.188069,155.749859 C295.201837,158.498251 293.061633,161.277436 290.836745,164.018128 C290.677674,164.228292 290.430521,164.353289 290.166969,164.356866 L290.166969,164.33377 Z M82.5903066,159.968678 C82.4158576,159.973813 82.2448405,159.919522 82.1052964,159.814707 C79.2976687,157.895997 76.3305251,156.221827 73.2365386,154.810633 C72.9100333,154.562247 72.8014323,154.119513 72.9759349,153.748238 C73.1504376,153.376948 73.5606111,153.178039 73.9602046,153.270919 C77.1407325,154.712822 80.1926955,156.422952 83.0830154,158.382772 C83.4000797,158.595461 83.5395209,158.991338 83.4257427,159.355784 C83.3119645,159.72023 82.9720608,159.966459 82.5903066,159.96098 L82.5903066,159.968678 Z M63.913565,151.261591 C63.829465,151.27566 63.743612,151.27566 63.659512,151.261591 C60.0334835,150.160694 56.4228521,149.298454 53.6513653,148.667171 C53.3501925,148.59841 53.1085809,148.374199 53.0175432,148.078995 C52.9265055,147.783791 52.9998725,147.462444 53.2100076,147.236001 C53.4201427,147.009558 53.7351213,146.912422 54.036294,146.981183 C56.8077808,147.620165 60.4569051,148.520898 64.1291251,149.614096 C64.5350879,149.739574 64.7891172,150.142101 64.7276819,150.562548 C64.6662466,150.982996 64.3076638,151.296008 63.8827707,151.300083 L63.913565,151.261591 Z M302.31532,147.535481 C302.152452,147.533693 301.993005,147.488516 301.853405,147.404605 C301.451864,147.147821 301.331716,146.615737 301.583955,146.211326 C303.462407,143.224279 305.209984,140.229533 306.765096,137.296377 C306.8911,137.001955 307.169904,136.801625 307.489139,136.776127 C307.808374,136.750629 308.115442,136.904163 308.286584,137.17485 C308.457726,137.445536 308.464745,137.788777 308.304811,138.066234 C306.726603,141.037884 304.963629,144.071122 303.062081,147.096662 C302.90659,147.363025 302.623683,147.529269 302.31532,147.535481 L302.31532,147.535481 Z M43.7509985,146.3499 C43.6844921,146.357467 43.6173421,146.357467 43.5508356,146.3499 C40.1452681,145.56471 36.8005892,144.535578 33.5426888,143.27047 C33.2500772,143.16091 33.0396315,142.901623 32.9926124,142.592731 C32.9455934,142.283839 33.0693589,141.973679 33.3161188,141.782016 C33.5628786,141.590353 33.8940174,141.54718 34.1816705,141.669167 C37.3723191,142.893731 40.6444445,143.894404 43.9742572,144.663912 C44.4020437,144.764838 44.6854463,145.171391 44.6321442,145.607678 C44.5788422,146.043964 44.2058977,146.37033 43.7663957,146.365297 L43.7509985,146.3499 Z M24.927984,138.204834 C24.7290366,138.205635 24.5359244,138.137637 24.3813853,138.012344 C21.6438818,135.762946 19.3513349,133.02129 17.6220369,129.928841 C17.4693877,129.660673 17.4713996,129.331439 17.6273149,129.065157 C17.7832301,128.798875 18.0693615,128.636 18.3779259,128.63787 C18.6864904,128.639772 18.9706098,128.806132 19.1232589,129.074299 C20.7494727,131.980023 22.9034157,134.556922 25.4745828,136.672792 C25.8416594,136.976187 25.896561,137.518341 25.59776,137.889167 C25.4340415,138.090662 25.1875993,138.206801 24.927984,138.204834 L24.927984,138.204834 Z M312.000126,129.20519 C311.883758,129.204566 311.768651,129.181021 311.661389,129.135888 C311.449684,129.047718 311.282303,128.878154 311.196881,128.665325 C311.11146,128.452496 311.115169,128.214264 311.207173,128.004197 C312.544836,124.85133 313.711579,121.628651 314.702326,118.350185 C314.84051,117.893116 315.323057,117.634608 315.780126,117.772792 C316.237195,117.910976 316.495703,118.393523 316.357519,118.850592 C315.350669,122.190542 314.160722,125.472534 312.793079,128.681672 C312.659081,129.000582 312.346038,129.207251 312.000126,129.20519 Z M14.5964971,120.813741 C14.2058797,120.815802 13.8635811,120.552739 13.7650511,120.174747 C12.8948319,116.796106 12.289936,113.354635 11.9558861,109.881753 C11.9069903,109.407677 12.2516673,108.983724 12.7257435,108.934828 C13.1998198,108.885933 13.6237724,109.230609 13.6726682,109.704686 C14.0080726,113.080286 14.5973993,116.425809 15.4356418,119.712833 C15.4942193,119.934382 15.4621924,120.170137 15.3466341,120.36803 C15.2310759,120.565924 15.0414934,120.709675 14.8197558,120.767537 C14.7471354,120.79062 14.6723147,120.8061 14.5964971,120.813741 L14.5964971,120.813741 Z M317.881837,109.373647 L317.743263,109.373647 C317.516816,109.339624 317.313498,109.216141 317.178899,109.030887 C317.0443,108.845632 316.989683,108.614108 317.027295,108.38823 C317.574962,105.025749 317.855554,101.625185 317.86644,98.2184127 C317.86644,97.1021194 317.86644,96.0012233 317.86644,94.9157243 C317.85782,94.4381792 318.235827,94.0429907 318.713283,94.0303882 C318.943879,94.022065 319.16804,94.1073496 319.334786,94.2668462 C319.501532,94.4263429 319.596691,94.6464938 319.598619,94.8772314 C319.598619,95.9781275 319.598619,97.0867223 319.598619,98.2184127 C319.589171,101.715872 319.298253,105.206898 318.72868,108.65768 C318.657658,109.070282 318.300505,109.372239 317.881837,109.373647 L317.881837,109.373647 Z M12.2484319,100.350918 C11.7752201,100.350918 11.3904167,99.969569 11.3861916,99.4963761 C11.3861916,99.0652559 11.3861916,98.6341357 11.3861916,98.2030156 C11.3861916,95.1235858 11.4785745,92.044156 11.6633403,89.0802048 C11.6825933,88.772156 11.8647259,88.4977785 12.1411305,88.3604277 C12.4175352,88.2230769 12.7462194,88.2436197 13.0033709,88.4143178 C13.2605225,88.5850158 13.407074,88.8799361 13.387821,89.1879849 C13.2107537,92.098046 13.1183708,95.1312844 13.1183708,98.2030156 L13.1183708,99.4809789 C13.1204218,99.709662 13.03154,99.9297926 12.8712804,100.09294 C12.7110207,100.256087 12.4925123,100.348885 12.2638291,100.350918 L12.2484319,100.350918 Z M318.066603,85.4079848 C317.627205,85.4065907 317.259138,85.0749985 317.212061,84.6381274 C316.865625,81.1429746 316.372917,77.7094104 315.749332,74.4760091 C315.690198,74.1734612 315.796963,73.8623475 316.02941,73.6598617 C316.261857,73.4573758 316.584672,73.3942802 316.876253,73.4943423 C317.167834,73.5944044 317.383884,73.8424225 317.443018,74.1449704 C318.082,77.4476589 318.582407,80.9197159 318.928843,84.4687588 C318.952516,84.696456 318.884668,84.9242207 318.740256,85.1018481 C318.595843,85.2794754 318.386722,85.392383 318.158986,85.4156834 L318.066603,85.4079848 Z M13.6110796,79.7033412 L13.4802038,79.7033412 C13.253914,79.671066 13.0499871,79.5494772 12.9139992,79.3657489 C12.7780113,79.1820206 12.7212993,78.9514696 12.7565378,78.7256222 C13.2800409,75.1996751 13.965214,71.7969052 14.7889615,68.4942168 C14.8645985,68.1944193 15.09443,67.9577468 15.3918807,67.8733516 C15.6893315,67.7889564 16.0092116,67.8696601 16.2310254,68.0850624 C16.4528391,68.3004647 16.5428877,68.6178409 16.4672507,68.9176384 C15.6317181,72.2359599 14.9636639,75.5942171 14.4656214,78.9796752 C14.3945209,79.3965311 14.0339531,79.7018768 13.6110796,79.7033412 L13.6110796,79.7033412 Z M314.117234,65.1145426 C313.738972,65.1144479 313.404939,64.8678255 313.293487,64.5063552 C312.28981,61.2421925 311.083935,58.0436664 309.682855,54.9293286 C309.556335,54.647409 309.589828,54.3194068 309.770718,54.0688774 C309.951608,53.818348 310.252412,53.6833527 310.559822,53.714743 C310.867231,53.7461332 311.134543,53.9391401 311.261063,54.2210598 C312.693678,57.3997356 313.925306,60.6652223 314.94868,63.9982493 C315.015694,64.2177436 314.992439,64.4548972 314.884066,64.6571936 C314.775693,64.8594899 314.591144,65.010236 314.371287,65.0760497 C314.289357,65.1030223 314.203477,65.1160344 314.117234,65.1145426 Z M18.7460288,59.6870476 C18.638454,59.6879359 18.5315802,59.6696687 18.4303872,59.6331576 C18.2169229,59.5505889 18.0450453,59.386537 17.9526259,59.1771492 C17.8602064,58.9677614 17.854829,58.7302199 17.9376784,58.5168643 C19.1869315,55.2720764 20.650315,52.1138427 22.3181673,49.0630149 C22.4666908,48.7879713 22.7506662,48.6130568 23.0631227,48.6041602 C23.3755793,48.5952635 23.6690473,48.7537362 23.8329803,49.0198832 C23.9969132,49.2860302 24.0064058,49.6194174 23.8578822,49.8944609 C22.22696,52.8895082 20.7945085,55.9884384 19.5697762,59.1712431 C19.42922,59.4977892 19.101173,59.7032018 18.7460288,59.6870476 L18.7460288,59.6870476 Z M305.571817,46.3377228 C305.274294,46.3357277 304.998425,46.1818218 304.840452,45.9296951 C303.019574,43.0489787 300.989377,40.306026 298.766277,37.7230148 C298.455895,37.3616113 298.497256,36.8170218 298.85866,36.50664 C299.220063,36.1962582 299.764653,36.2376194 300.075035,36.5990229 C302.353653,39.2454046 304.435277,42.0552102 306.303181,45.0058662 C306.426436,45.1996317 306.467303,45.4345603 306.416722,45.6585656 C306.36614,45.8825709 306.228289,46.0771438 306.033731,46.1991452 C305.896831,46.2899559 305.736097,46.3381761 305.571817,46.3377228 Z M28.6771898,41.6107948 C28.3491977,41.6108113 28.0495997,41.4247366 27.9042254,41.1307211 C27.758851,40.8367056 27.7928786,40.4856716 27.9920167,40.2250514 C30.0938166,37.4354771 32.3966925,34.8032512 34.8822408,32.3494098 C35.1022756,32.1321253 35.4215161,32.0487333 35.7197074,32.1306469 C36.0178988,32.2125604 36.2497385,32.4473349 36.3278949,32.7465329 C36.4060513,33.045731 36.3186505,33.3638973 36.0986155,33.5811817 C33.668649,35.9776184 31.4196374,38.5508581 29.3700615,41.2797561 C29.2044803,41.4935012 28.9475119,41.6162749 28.6771898,41.6107948 L28.6771898,41.6107948 Z M292.122407,30.6942163 C291.91625,30.6943424 291.71687,30.6205992 291.560411,30.4863548 C288.981635,28.2591617 286.260873,26.2018751 283.415319,24.3274952 C283.017145,24.0628734 282.907125,23.5265272 283.168965,23.1265176 C283.295943,22.9348351 283.49422,22.8018066 283.719735,22.7569926 C283.945251,22.7121786 284.179325,22.7592914 284.369943,22.8878618 C287.278776,24.8138862 290.058743,26.9277925 292.692102,29.21609 C292.98673,29.4473257 293.098387,29.8423177 292.968421,30.193579 C292.838454,30.5448403 292.49659,30.7720293 292.122407,30.7558049 L292.122407,30.6942163 Z M43.3352755,27.0835849 C43.0622345,27.0854329 42.80475,26.9566907 42.6424038,26.737149 C42.5051991,26.5535326 42.4467523,26.3228416 42.4799772,26.0960461 C42.513202,25.8692505 42.6353636,25.665018 42.819471,25.5284728 C45.6168097,23.4474072 48.5373237,21.5372471 51.5650516,19.808432 C51.8332191,19.6557828 52.1624535,19.6577947 52.4287353,19.81371 C52.6950172,19.9696253 52.8578919,20.2557566 52.8560225,20.5643211 C52.8541206,20.8728856 52.6877609,21.1570049 52.4195934,21.3096541 C49.4527354,23.008519 46.5913405,24.8852649 43.85108,26.9296134 C43.699982,27.0346666 43.519236,27.0886206 43.3352755,27.0835849 L43.3352755,27.0835849 Z M274.946888,19.2156418 C274.809423,19.2179381 274.673852,19.1833807 274.55426,19.1155603 C271.605706,17.5758454 268.449291,16.190102 265.177397,14.8967415 C264.737983,14.71528 264.522944,14.2169367 264.692386,13.7727497 C264.776384,13.5587936 264.942331,13.3872315 265.153375,13.2961646 C265.364419,13.2050977 265.603088,13.2020648 265.816378,13.2877395 C269.142162,14.6041957 272.344769,16.0515277 275.339515,17.5758454 C275.691615,17.7610283 275.873233,18.1614673 275.780597,18.5483596 C275.687961,18.9352519 275.344676,19.2100097 274.946888,19.2156418 Z M61.2421597,16.7290023 C60.8296025,16.7365753 60.4695059,16.4507986 60.3831767,16.0473038 C60.2968476,15.6438089 60.5084866,15.2357074 60.8880252,15.0738088 C63.967455,13.7188597 67.223952,12.4331977 70.6113248,11.270713 C71.0640206,11.1174333 71.5555951,11.3580641 71.7122209,11.8096132 C71.86504,12.2602884 71.6238496,12.7495606 71.1733207,12.9028108 C67.8321394,14.0575969 64.6141353,15.3201631 61.5885955,16.6597151 C61.4786495,16.7048824 61.3610203,16.7284082 61.2421597,16.7290023 Z M255.715849,11.5247659 C255.631749,11.5388353 255.545896,11.5388353 255.461796,11.5247659 C252.297682,10.5547456 248.948802,9.64631377 245.507539,8.82256631 C245.207741,8.75105504 244.968868,8.52503578 244.8809,8.22964783 C244.792931,7.93425988 244.869233,7.6143797 245.081063,7.3905031 C245.292892,7.1666265 245.608067,7.07276567 245.907865,7.14427708 C249.379922,7.96802455 252.767295,8.89185348 255.969902,9.86957243 C256.422918,10.0168403 256.675753,10.4985922 256.539596,10.9550714 C256.417368,11.3043643 256.085885,11.5367121 255.715849,11.5324645 L255.715849,11.5247659 Z M80.8119359,9.9388596 C80.3690799,9.95263198 79.9878689,9.62852289 79.9302227,9.18921885 C79.8725765,8.74991482 80.157261,8.33842578 80.5886772,8.23747465 C83.8220785,7.37523431 87.232547,6.57458257 90.7353984,5.85091657 C90.9600331,5.80561702 91.1934604,5.85160147 91.3841303,5.97871478 C91.5748003,6.10582808 91.7070272,6.30361305 91.7516102,6.52839113 C91.799246,6.75212451 91.7551928,6.98561614 91.6293096,7.17661144 C91.5034263,7.36760674 91.3062234,7.5001588 91.0818342,7.54460295 C87.6174757,8.26057037 84.2301029,9.08431784 81.0351946,9.9080653 C80.9630805,9.93183602 80.8878465,9.94480739 80.8119359,9.94655818 L80.8119359,9.9388596 Z M235.553282,6.69006119 L235.399311,6.69006119 C232.135115,6.08957238 228.701551,5.5429736 225.191001,5.05796341 C224.885703,5.01533172 224.626339,4.81306362 224.51061,4.52735157 C224.394881,4.24163951 224.440368,3.91588997 224.629938,3.67280968 C224.819507,3.42972939 225.124358,3.30624805 225.429657,3.34887988 C228.963302,3.83389007 232.419962,4.38818743 235.707254,4.98867624 C236.169827,5.04447986 236.504398,5.4576672 236.462777,5.92173181 C236.421157,6.38579643 236.018403,6.73285601 235.553282,6.70545834 L235.553282,6.69006119 Z M101.113077,5.72773938 C100.6697,5.71272753 100.308642,5.36648989 100.27507,4.92413151 C100.241498,4.48177313 100.546168,4.08501143 100.982201,4.00325871 C104.284889,3.48745422 107.756946,3.01784118 111.298291,2.60211816 C111.527231,2.57625885 111.756998,2.64309957 111.936341,2.78773113 C112.115684,2.93236269 112.229684,3.14275379 112.252914,3.3719756 C112.283195,3.60172713 112.218,3.83385063 112.072525,4.01423883 C111.927051,4.19462703 111.714008,4.30751859 111.483056,4.32659884 C107.964808,4.74232186 104.554339,5.2119349 101.236254,5.72004081 L101.113077,5.72773938 Z M215.005787,3.8261915 L214.921103,3.8261915 C211.618414,3.48745422 208.146357,3.19490839 204.605013,2.94085544 C204.142599,2.88840358 203.803361,2.48131828 203.835155,2.0170265 C203.879879,1.55048892 204.29203,1.20702954 204.758984,1.24716906 C208.315726,1.50122202 211.80318,1.80146642 215.128964,2.13250512 C215.605166,2.15801605 215.970524,2.56473478 215.945013,3.04093689 C215.919502,3.51713901 215.512783,3.88249652 215.036581,3.85698579 L215.005787,3.8261915 Z M121.72216,3.30268843 C121.270002,3.28523632 120.906723,2.92407109 120.886632,2.47202262 C120.866541,2.01997415 121.196348,1.62800508 121.645175,1.57050919 C124.970959,1.29336051 128.458413,1.04700612 132.022853,0.846843188 C132.330902,0.828965279 132.625089,0.97678754 132.794596,1.23462674 C132.964103,1.49246594 132.983178,1.82115016 132.844636,2.0968672 C132.706095,2.37258424 132.430983,2.5534461 132.122935,2.57132386 C128.573892,2.7714868 125.101835,3.01784118 121.791448,3.29498986 L121.72216,3.30268843 Z M194.312019,2.33266806 L194.312019,2.33266806 C190.986235,2.17869657 187.49878,2.0478208 183.957436,1.95543791 C183.510441,1.90293468 183.177293,1.51815647 183.18929,1.0682485 C183.201288,0.618340543 183.55447,0.251864476 184.003628,0.223258659 C187.560369,0.323340126 191.055522,0.446517318 194.389005,0.608187381 C194.697053,0.61506347 194.978034,0.785759319 195.126103,1.05597545 C195.274173,1.32619159 195.266836,1.65487575 195.106857,1.91821579 C194.946878,2.18155583 194.658561,2.33954414 194.350512,2.33266806 L194.312019,2.33266806 Z M142.439024,2.10171082 C141.992224,2.05953935 141.650832,1.68440684 141.650832,1.2356212 C141.650832,0.786835556 141.992224,0.411703048 142.439024,0.369531573 C145.772507,0.254052957 149.26766,0.161670063 152.8321,0.100081468 L152.8321,0.100081468 C153.302353,0.100006485 153.685943,0.476746171 153.69434,0.946924656 C153.70296,1.42446973 153.324954,1.81965825 152.847497,1.83226072 C149.298454,1.88615074 145.811,1.97853363 142.485216,2.09401225 L142.439024,2.10171082 Z M173.564361,1.76297355 L173.564361,1.76297355 C170.895522,1.76297355 168.208719,1.75014259 165.503953,1.72448067 L163.194381,1.72448067 C162.718179,1.72448067 162.332141,1.33844253 162.332141,0.862240337 C162.332141,0.386038148 162.718179,1.13686838e-13 163.194381,1.13686838e-13 L165.503953,1.13686838e-13 C168.213852,1.13686838e-13 170.905786,0.0153971489 173.579758,0.0461914466 C174.05596,0.0461914466 174.441998,0.432229595 174.441998,0.908431784 C174.441998,1.38463397 174.05596,1.77067212 173.579758,1.77067212 L173.564361,1.76297355 Z" id="Shape" fill="#5AA6AB"></path>
                <path d="M295.99479,107.002486 C295.99479,188.738251 120.713647,298.80477 99.8813048,219.763506 C72.2742168,115.024401 -2.27373675e-13,188.738251 -2.27373675e-13,107.002486 C-2.27373675e-13,25.2667213 66.2616302,12.9951937 147.997395,12.9951937 C229.73316,12.9951937 295.99479,25.2667213 295.99479,107.002486 Z" id="Path" fill="#E2FDFF"></path>
            </g>
            <ellipse id="Oval-Copy-6" fill="#ECFEFF" cx="129.735234" cy="260.183299" rx="42.0570265" ry="6.41547862"></ellipse>
            <ellipse id="Oval-Copy-7" fill="#ECFEFF" cx="292.260692" cy="260.183299" rx="42.0570265" ry="6.41547862"></ellipse>
            <g id="Group-20">
                <g id="Group-18">
                    <polygon id="Path" fill="url(#linearGradient-1)" style="mix-blend-mode: multiply;" points="309.608123 147.024305 167.635873 144.120232 3.41060513e-13 147.024305 169.027034 137.527686"></polygon>
                    <polygon id="Path" fill="#CCCCCC" points="45.6428478 29.9013402 162.666016 34.9091199 263.963279 29.526106 263.963279 143.830822 164.833592 137.888949 45.6428478 143.830822"></polygon>
                    <path d="M228.443771,37.7453315 L222.915054,38.0187734 L162.184998,41.0505858 L127.940886,39.6753924 L122.669644,39.4618283 L83.996572,37.9089975 L78.425941,37.6854537 L91.5990561,78.643862 L52.3451691,78.643862 L52.3451691,137.05066 L57.5126229,136.809153 L69.8115221,136.23233 L109.53046,134.374122 L114.947405,134.12064 L164.216851,131.813349 L164.532207,131.831312 L173.513877,132.336281 L195.175667,133.555793 L200.536726,133.859173 L204.129394,121.466466 C211.115137,119.853757 218.184708,118.616283 224.88703,117.674205 C236.305725,116.057505 247.570735,115.137383 257.258962,114.620438 L257.258962,109.377139 C247.389105,109.898075 235.884585,110.830173 224.214402,112.4828 C217.675747,113.406249 211.538938,114.488041 205.803976,115.728177 L215.049108,83.885165 L257.258962,83.885165 L257.258962,36.3062685 L228.443771,37.7453315 Z M163.851596,83.8791772 C151.229357,89.6633723 137.928503,95.9838063 123.949033,102.840479 C118.360439,105.576895 112.871641,108.30333 107.506591,110.993839 L98.7843916,83.885165 L163.851596,83.8791772 Z" id="Shape" fill="#E6E6E6"></path>
                    <path d="M257.260958,114.61445 L257.260958,137.05066 L200.540718,133.857177 L204.133386,121.46447 C211.119128,119.851761 218.1887,118.614287 224.891021,117.672209 C236.307721,116.051517 247.572731,115.131395 257.260958,114.61445 Z" id="Path" fill="#73EA97"></path>
                    <polygon id="Path" fill="#73EA97" points="91.603048 78.643862 52.3451691 78.643862 52.3451691 36.6355963 78.4239451 37.6854537"></polygon>
                    <path d="M257.260958,83.8791772 L257.260958,109.371151 C247.391101,109.892088 235.886581,110.824185 224.216398,112.476813 C217.677743,113.400261 211.540934,114.482053 205.805972,115.722189 L215.051104,83.8791772 L257.260958,83.8791772 Z" id="Path" fill="#E6E6E6"></path>
                    <path d="M220.402183,65.4467958 C234.132161,60.1116842 246.453016,55.8204421 257.260958,52.6149841 L257.260958,47.1441495 C246.930042,50.1433618 235.258529,54.1272311 222.246419,59.0957575 L228.443771,37.7393437 L222.915054,38.0127856 L216.104953,61.4709101 C214.089067,62.2692807 212.045238,63.0822881 209.973467,63.9099323 C199.230059,68.2410929 187.713563,73.1504068 175.423978,78.6378742 L131.11441,78.6378742 L127.920927,39.6694047 L122.649685,39.4558405 L125.843168,78.6378742 L97.1018256,78.6378742 L83.996572,37.9030097 L78.425941,37.6794659 L91.5990561,78.6378742 L52.3451691,78.6378742 L52.3451691,83.8731895 L93.285614,83.8731895 L102.774249,113.361008 C85.8328244,121.905569 70.3184875,130.001047 57.5126229,136.803165 L69.8115221,136.226342 C80.2003197,130.769479 91.9024369,124.715834 104.396937,118.40671 L109.53046,134.374122 L114.947405,134.12064 L109.129279,116.031558 C114.717873,113.237261 120.450174,110.38109 126.276284,107.524919 C144.17043,98.7508258 160.936213,90.8689119 176.573632,83.8791772 L209.60422,83.8791772 L199.965891,117.081415 C191.846462,119.077342 184.663122,121.432535 178.47575,124.101089 C173.085418,126.427008 168.43757,129.007076 164.532207,131.841292 L173.513877,132.346261 C180.659294,128.396323 189.263733,125.322596 198.263366,122.931476 L195.175667,133.565772 L200.536726,133.869153 L204.129394,121.476445 C211.115137,119.863737 218.184708,118.626262 224.88703,117.684185 C236.305725,116.067484 247.570735,115.147362 257.260958,114.630417 L257.260958,109.387118 C247.389105,109.908055 235.884585,110.840153 224.214402,112.49278 C217.675747,113.416229 211.538938,114.498021 205.803976,115.738156 L215.049108,83.8951447 L257.260958,83.8951447 L257.260958,78.643862 L216.572,78.643862 L220.402183,65.4467958 L220.402183,65.4467958 Z M123.949033,102.834491 C118.360439,105.570907 112.871641,108.297342 107.506591,110.987851 L98.7843916,83.8791772 L163.851596,83.8791772 C151.229357,89.6633723 137.928503,95.9818104 123.949033,102.834491 Z M211.121124,78.643862 L188.447399,78.643862 C197.502252,74.7118867 206.106692,71.1192189 214.260717,67.8658587 L211.121124,78.643862 Z" id="Shape" fill="#FFFFFF"></path>
                    <path d="M163.851596,83.8791772 C151.229357,89.6633723 137.928503,95.9838063 123.949033,102.840479 C118.360439,105.576895 112.871641,108.30333 107.506591,110.993839 L98.7843916,83.885165 L163.851596,83.8791772 Z" id="Path" fill="#73EA97"></path>
                    <polygon id="Path" fill="#E6E6E6" style="mix-blend-mode: multiply;" points="263.963279 29.526106 162.666016 34.9091199 164.833592 137.888949 263.963279 143.830822"></polygon>
                    <path d="M106.614411,60.9539651 C113.534289,53.5091592 117.009197,47.9365323 118.745653,44.0903819 C119.532713,42.6524308 120.054645,41.084606 120.286508,39.4618283 C120.535999,38.1225616 120.432211,37.4659018 120.432211,37.4659018 C120.341266,29.8987652 114.181096,23.8121857 106.613413,23.8121857 C99.0457303,23.8121857 92.8855606,29.8987652 92.7946161,37.4659018 C92.7946161,37.4659018 92.6908279,38.1165738 92.9403187,39.4618283 C93.1721813,41.084606 93.6941135,42.6524308 94.481174,44.0903819 C96.2156342,47.9365323 99.6905423,53.5091592 106.614411,60.9539651 Z" id="Path" fill="#FF1D25"></path>
                    <circle id="Oval" fill="#FFFFFF" transform="translate(106.601347, 37.103024) rotate(-76.720000) translate(-106.601347, -37.103024) " cx="106.601347" cy="37.103024" r="9.58643511"></circle>
                    <path d="M229.459697,38.3481013 C236.545236,30.7276538 240.101978,25.0232958 241.878352,21.0873287 C242.683064,19.6147149 243.217751,18.0099779 243.45713,16.3489991 C243.710613,14.9797935 243.604829,14.3131541 243.604829,14.3131541 C243.665333,9.21990334 240.982787,4.48744021 236.58171,1.92318866 C232.180634,-0.641062887 226.740757,-0.641062887 222.33968,1.92318866 C217.938603,4.48744021 215.256058,9.21990334 215.316562,14.3131541 C215.316562,14.3131541 215.210778,14.9797935 215.46426,16.3489991 C215.703895,18.0096423 216.237853,19.6142204 217.041042,21.0873287 C218.819413,25.0232958 222.37815,30.7276538 229.459697,38.3481013 Z" id="Path" fill="#008A91"></path>
                </g>
                <circle id="Oval" fill="#FFFFFF" cx="229.459697" cy="15.9398342" r="9.81197481"></circle>
            </g>
            <g id="Group-21" transform="translate(199.625255, 144.161914) scale(-1, 1) translate(-199.625255, -144.161914) translate(75.625255, 25.661914)">
                <polygon id="Path" fill="#1C8C92" points="56.1076357 148.891138 49.0670045 165.961301 56.1076357 170.227594 62.7241326 155.507635"></polygon>
                <path d="M105.761301,100.564764 L98.9452114,104.322096 L92.9075333,104.431872 C91.0635475,104.465753 89.3220636,105.286556 88.1222991,106.687269 L84.7691424,110.594295 C83.7372173,111.786891 83.4369532,113.446949 83.9857411,114.925456 C84.5795293,116.487269 85.7521362,118.178817 88.2270853,118.173838 L91.2758632,117.53513 C91.9040306,117.403102 92.4506278,117.019368 92.7881986,116.473409 C93.1257694,115.927449 93.224807,115.266986 93.0622176,114.646027 L92.9674111,114.28676 L99.9531543,111.697045 L101.949081,109.770976 L109.134417,105.634418 L105.761301,100.564764 Z" id="Path" fill="#EDDEA2"></path>
                <path d="M101.385232,102.974845 C116.040323,93.7137459 119.288694,86.7280026 135.570465,75.2663938 C138.928612,73.0409356 151.652644,41.1659871 151.652644,41.1659871 C158.748164,35.4626267 167.200913,45.0430746 166.402542,55.4119135 L154.252339,78.2253551 C151.486259,83.4094804 147.10734,87.551938 141.777797,90.0262714 L104.234417,108.448674 L101.385232,102.974845 Z" id="Path" fill="url(#linearGradient-2)"></path>
                <path d="M229.004781,154.075557 L232.807022,154.075557 C235.381767,154.075557 237.183091,157.154274 236.299893,160.063337 L234.303967,166.819549 L229.004781,154.075557 Z" id="Path" fill="#FC2222"></path>
                <polygon id="Path" fill="#000000" points="243.909364 185.83075 241.140015 176.709366 234.658244 179.568531 232.966696 175.736351 243.774639 170.971077 247.916186 184.613235"></polygon>
                <path d="M242.65692,210.909569 C242.157938,216.398367 239.39358,217.805495 239.39358,217.805495 L83.9558022,217.805495 C82.4151023,217.803747 80.9521971,217.128402 79.951499,215.956923 C78.9508008,214.785444 78.5123734,213.234972 78.7514235,211.712929 C82.1993868,189.303663 64.9495908,161.455496 43.7678192,158.820873 C42.7596454,158.701321 41.8730666,158.097758 41.3922167,157.203616 C40.9113668,156.309474 40.896637,155.23705 41.352748,154.330038 C43.0842144,151.01181 46.9762713,147.20458 51.0230126,145.992055 L51.1178191,145.967105 C52.8960845,145.386733 54.4009337,144.176465 55.3491836,142.564051 L55.3491836,142.564051 C55.6414154,142.092133 55.8822985,141.590293 56.0677172,141.067106 L69.8495907,102.994805 L84.0605884,102.994805 C84.0605884,102.994805 63.3279004,167.418327 100.846331,203.290119 L136.927695,203.290119 C145.280648,181.554478 138.055394,162.014356 126.079834,149.400099 C123.418019,146.45821 122.473499,142.345773 123.584926,138.537269 C125.760486,130.992666 131.129529,125.658552 137.416697,125.658552 L175.249487,125.658552 C178.147721,125.521402 181.052233,125.609822 183.936758,125.923012 L183.936758,125.923012 C195.597959,127.145517 206.595515,131.880853 215.871584,139.32067 C234.738081,154.379936 245.471176,180.366901 242.65692,210.909569 Z" id="Path" fill="#23AFB7"></path>
                <polygon id="Path" fill="#1C8C92" points="67.7788168 111.876678 60.808043 111.876678 60.808043 102.201424 70.4783076 102.201424"></polygon>
                <path d="M53.078817,105.973725 C53.078817,111.048369 54.2464341,115.63401 56.127595,118.947248 C51.3872692,118.243684 49.6408334,112.714968 49.6408334,105.973725 C49.6408334,99.232483 51.3822794,93.7237255 56.127595,93.0002021 C54.2464341,96.3134403 53.078817,100.904072 53.078817,105.973725 Z" id="Path" fill="#999999"></path>
                <path d="M66.2918514,105.973725 C66.2918514,113.174031 62.739102,119.007216 57.1954157,119.007216 C56.8412297,119.008978 56.4874706,118.982279 56.1375746,118.927289 C54.2564138,115.63401 53.0887967,111.048369 53.0887967,105.953766 C53.0887967,100.859163 54.2564138,96.293481 56.1375746,92.9802428 C56.4878808,92.929433 56.8414453,92.9044166 57.1954157,92.9053679 C62.7291224,92.9453141 66.2918514,98.7684301 66.2918514,105.973725 Z" id="Path" fill="#23AFB7"></path>
                <circle id="Oval" fill="#1C1C1C" cx="35.8390006" cy="209.467512" r="26.8801421"></circle>
                <circle id="Oval" fill="#727272" transform="translate(35.854925, 209.500971) rotate(-80.780000) translate(-35.854925, -209.500971) " cx="35.8549253" cy="209.500971" r="19.0062115"></circle>
                <path d="M45.3346216,209.467512 C45.3346216,214.703531 41.0899894,218.948163 35.8539701,218.948163 C30.6179508,218.948163 26.3733185,214.703531 26.3733185,209.467512 C26.3733185,204.231492 30.6179508,199.98686 35.8539701,199.98686 C41.0843,200.00057 45.3209117,204.237182 45.3346216,209.467512 Z" id="Path" fill="#A8A8A8"></path>
                <circle id="Oval" fill="#1C1C1C" cx="190.95743" cy="209.467512" r="26.8801421"></circle>
                <circle id="Oval" fill="#727272" transform="translate(190.978035, 209.499133) rotate(-80.780000) translate(-190.978035, -209.499133) " cx="190.978035" cy="209.499133" r="19.0062115"></circle>
                <path d="M200.46303,209.467512 C200.46303,214.700279 196.223439,218.943549 190.990673,218.948131 C185.757908,218.952705 181.510916,214.71686 181.501727,209.484101 C181.492568,204.251341 185.72468,200.000631 190.95743,199.98686 C196.1975,199.98686 200.449277,204.227459 200.46303,209.467512 Z" id="Path" fill="#A8A8A8"></path>
                <path d="M71.7806497,200.615577 L71.5610978,201.997756 C71.2390052,204.013829 69.8013393,205.672762 67.8515461,206.278235 C65.9017528,206.883708 63.7772806,206.330933 62.3698556,204.851931 C46.5554634,188.405496 28.5921236,185.577933 8.47983612,196.369243 C6.68669292,197.340723 4.49796519,197.212417 2.83061356,196.038076 C1.16326192,194.863736 0.305190308,192.846137 0.615885135,190.830547 L0.615885135,190.75071 L0.83044725,189.448367 C3.57983621,171.984009 23.5141536,159.753969 43.0991838,162.837675 C43.0991838,162.837675 71.4862505,168.770567 72.2496925,193.654783 C72.3145863,195.984675 72.1575303,198.315454 71.7806497,200.615577 L71.7806497,200.615577 Z" id="Path" fill="#13939D"></path>
                <path d="M72.2447027,195.3613 C71.4812607,170.477085 43.094194,167.103969 43.094194,167.103969 C23.5091638,164.025252 3.57484639,173.690527 0.825457433,191.154885 L0.610895319,192.457227 C0.515909347,191.867237 0.515909347,191.265852 0.610895319,190.675862 L0.83044725,189.293683 C3.57983621,171.829325 23.5141536,159.604274 43.0991838,162.692971 C43.094194,162.692971 72.888389,168.920262 72.2447027,195.3613 Z" id="Path" fill="#D1D0CF" style="mix-blend-mode: multiply;"></path>
                <path d="M239.39358,214.472298 C239.39358,189.228816 225.51191,163.132075 186.691137,163.132075 C161.742053,163.132075 142.51629,186.499386 142.51629,215.325556 L239.39358,214.472298 Z" id="Path" fill="#CCCCCC" style="mix-blend-mode: multiply;"></path>
                <path d="M239.39358,217.885332 C239.39358,189.059162 217.707837,165.691851 190.95743,165.691851 C164.207023,165.691851 142.51629,189.059162 142.51629,217.885332 L151.49796,217.885332 L151.49796,215.325556 L229.014761,215.325556 L229.014761,217.885332 L239.39358,217.885332 Z" id="Path" fill="#13939D"></path>
                <path d="M71.0970448,95.8344179 L71.0970448,95.8344179 L86.276067,104.786149 L86.276067,104.786149 C85.1626355,106.674165 83.3446887,108.042446 81.2222758,108.589894 C79.0998629,109.137342 76.8468997,108.819097 74.9591629,107.705192 L74.0160876,107.151322 C72.1280712,106.03789 70.7597903,104.219944 70.2123425,102.097531 C69.6648947,99.9751179 69.9831393,97.7221547 71.0970448,95.8344179 Z" id="Path" fill="#23AFB7"></path>
                <path d="M78.1825844,101.163542 C73.9911385,98.6686338 70.7976558,96.348369 71.0471467,95.9242346 C71.2966375,95.5001002 74.8942953,97.166699 79.0807514,99.641648 C83.2672076,102.116597 86.4706698,104.456821 86.221179,104.875966 C85.9716882,105.29511 82.3740304,103.638491 78.1825844,101.163542 Z" id="Path" fill="#D8D8D8"></path>
                <path d="M72.2097739,106.168328 C72.2097739,106.168328 73.7067189,115.204886 83.7113012,119.007126 L86.8049875,112.490426 C83.3841043,110.694254 80.2917026,108.332354 77.6586537,105.504683 C77.5488777,103.793175 71.7806497,101.981872 72.2097739,106.168328 Z" id="Path" fill="#141413"></path>
                <path d="M65.1791223,156.45071 C64.8098759,157.947655 62.0455175,158.571382 59.011709,157.82291 C55.9779005,157.074437 53.8123201,155.253154 54.1815665,153.74623 C54.5508129,152.239305 57.3151713,151.625557 60.3489798,152.37403 C63.3827883,153.122502 65.5483688,154.943786 65.1791223,156.45071 Z" id="Path" fill="#2C2C2C"></path>
                <path d="M230.67637,166.53014 C230.67637,168.081973 228.570667,169.339406 225.975963,169.339406 C223.381258,169.339406 221.275556,168.081973 221.275556,166.53014 C221.275556,164.978307 223.381258,163.725863 225.975963,163.725863 C228.570667,163.725863 230.67637,164.983297 230.67637,166.53014 Z" id="Path" fill="#9C0102"></path>
                <rect id="Rectangle" fill="#000000" transform="translate(241.078317, 169.369449) rotate(-16.890000) translate(-241.078317, -169.369449) " x="238.982594" y="164.669042" width="4.19144596" height="9.4008145"></rect>
                <path d="M210.367816,146.051932 L127.721484,146.051932 C124.662726,146.051932 122.547044,142.434315 123.500099,138.931464 C125.610791,131.197248 131.049691,125.688491 137.436657,125.688491 L183.956717,125.952951 L183.956717,125.952951 C238.759873,126.292259 216.385535,145.263541 210.367816,146.051932 Z" id="Path" fill="url(#linearGradient-3)"></path>
                <path d="M97.5480627,203.295109 L99.4342134,207.850811 L137.905699,207.850811 C137.905699,207.850811 135.660282,206.992563 136.942665,203.295109 L97.5480627,203.295109 Z" id="Path" fill="#B7B7B7"></path>
                <polygon id="Path" fill="#EADCA2" points="117.018327 186.768836 117.696942 196.234518 125.196637 191.973215 123.370364 185.052339"></polygon>
                <path d="M125.171687,190.331565 L127.531871,197.26242 C127.762209,197.932882 127.461659,198.670401 126.828307,198.988897 C123.490119,200.670465 113.475557,205.540526 109.139407,205.760078 C105.277289,205.954681 103.191545,205.660282 102.358246,205.490628 C102.099417,205.440246 101.892087,205.24648 101.824336,204.991646 L101.470059,203.634416 C101.335561,203.118815 101.412817,202.570841 101.684621,202.112522 L102.128714,201.35906 C102.402133,200.895083 102.846316,200.556572 103.366189,200.415984 L105.940934,199.71741 C106.638331,199.531178 107.284748,199.190061 107.832075,198.719447 L117.312726,190.421382 C117.312726,190.421382 119.074132,193.634824 121.349488,193.754579 L122.991138,193.100913 C123.593347,192.856754 124.02968,192.322622 124.148775,191.683805 L124.333398,190.685842 L125.171687,190.331565 Z" id="Path" fill="#434444"></path>
                <path d="M115.087268,201.588591 C110.766036,202.69431 106.319548,203.234396 101.859264,203.195312 L101.859264,202.561606 C102.008959,202.561606 117.103154,203.060587 126.753459,195.411198 L127.147655,195.91018 C123.545007,198.784314 119.183908,200.53075 115.087268,201.588591 Z" id="Path" fill="#4C4B47"></path>
                <polygon id="Path" fill="#EADCA2" points="120.047146 188.874539 119.438388 198.34521 127.447044 195.141748 126.573826 188.036249"></polygon>
                <path d="M127.636657,193.510078 L129.033806,200.695414 C129.17176,201.391983 128.772868,202.08311 128.10071,202.312115 C124.56792,203.52464 113.984519,206.992563 109.638388,206.623316 C105.78625,206.293988 103.760384,205.71517 102.957024,205.43574 C102.705431,205.347126 102.526949,205.122083 102.497961,204.856921 L102.333297,203.469752 C102.263576,202.935319 102.412952,202.395406 102.747452,201.972807 L103.291342,201.284212 C103.62634,200.864366 104.111038,200.590716 104.643582,200.520771 L107.293175,200.176473 C108.006129,200.07956 108.68822,199.823776 109.289101,199.428001 L119.802645,192.492156 C119.802645,192.492156 121.109977,195.91517 123.350404,196.344294 L125.061912,195.91517 C125.692455,195.756849 126.197475,195.285749 126.399182,194.667716 L126.718531,193.704681 L127.636657,193.510078 Z" id="Path" fill="#606060"></path>
                <path d="M116.12515,203.300098 C111.694214,203.808906 107.216045,203.741818 102.80234,203.100506 L102.912116,202.471789 C103.06181,202.496738 117.951423,205.026575 128.549793,198.764355 L128.874131,199.308245 C124.887268,201.668428 120.316596,202.801117 116.12515,203.300098 Z" id="Path" fill="#4C4B47"></path>
                <path d="M173.957125,97.8852325 L177.045821,104.501729 C177.666671,105.811852 178.025995,107.230503 178.103662,108.678206 C178.522807,117.684825 175.389202,123.333297 166.073214,125.71344 C155.095618,128.517717 130.760282,129.625456 117.173011,130.61344 C121.613948,150.667513 124.403256,163.047248 124.523011,188.036249 L115.720975,189.228816 C111.414763,170.561912 99.4541727,154.968735 99.8333987,135.603256 C99.9161878,129.711096 102.621798,124.162674 107.213337,120.469143 C118.56018,111.452544 133.784111,107.919754 144.636962,102.256312 L173.957125,97.8852325 Z" id="Path" fill="url(#linearGradient-4)"></path>
                <path d="M178.193479,100.509876 C178.193479,100.509876 178.692461,112.834723 178.418021,114.306719 C176.621687,123.732483 171.127899,125.134621 161.712115,127.040731 C152.890119,128.827085 138.943581,131.272096 126.74348,132.359876 C121.998164,132.77902 116.993378,137.095212 118.600099,141.581057 C123.445211,155.09847 121.823521,166.834519 128.150608,191.723724 L118.440425,191.723724 C114.533398,182.103357 98.8254558,156.795008 100.107839,137.708959 C100.541934,131.238229 103.833753,125.296495 109.089509,121.497045 C120.785639,113.064255 135.775048,109.237065 146.622909,104.247249 L178.193479,100.509876 Z" id="Path" fill="url(#linearGradient-5)"></path>
                <path d="M85.3878796,125.71344 C85.335647,125.973646 85.3006423,126.237015 85.2830935,126.501831 C85.2726849,126.234975 85.3081275,125.968312 85.3878796,125.71344 Z" id="Path" fill="#006363"></path>
                <path d="M105.761301,104.831057 L98.9452114,108.588389 L92.9075333,108.698165 C91.0644378,108.735849 89.3244306,109.555957 88.1222991,110.953562 L84.7691424,114.860589 C83.7372173,116.053184 83.4369532,117.713242 83.9857411,119.191749 C84.5795293,120.753562 85.7521362,122.44511 88.2270853,122.440131 L91.2758632,121.801424 C91.9040306,121.669395 92.4506278,121.285661 92.7881986,120.739702 C93.1257694,120.193742 93.224807,119.533279 93.0622176,118.91232 L92.9674111,118.553053 L99.9531543,115.963338 L101.949081,114.037269 L109.134417,109.900711 L105.761301,104.831057 Z" id="Path" fill="#F7E8A6"></path>
                <path d="M147.910282,31.4059058 C146.772604,34.7041746 147.590934,37.1940931 150.67464,40.8166999 L140.779834,47.7675145 C140.909569,42.1988791 139.208042,36.7499994 136.353867,31.3659872 L147.910282,31.4059058 Z" id="Path" fill="#EADCA2"></path>
                <path d="M150.884213,19.7846229 C153.379121,27.7683295 150.180648,35.9017305 143.723826,37.9525452 C137.267003,40.0033598 131.748266,34.4596735 129.253357,26.475967 C126.758449,18.4922604 128.205496,11.0973522 134.662319,9.04154771 C141.119141,6.98574326 148.384314,11.8009163 150.884213,19.7846229 Z" id="Path" fill="#F7E8A6"></path>
                <path d="M92.423521,116.552137 C92.7638206,118.391577 91.5489598,120.15874 89.7096575,120.499783 C87.8703551,120.840826 86.1027008,119.626679 85.7609146,117.787515 C85.4191283,115.948351 86.6325602,114.180206 88.4715863,113.837676 C90.3120962,113.497671 92.0803325,114.712218 92.423521,116.552137 Z" id="Path" fill="#000000"></path>
                <path d="M143.554172,41.63004 L148.813439,37.1392051 C148.813439,37.1392051 172.629833,24.8642562 178.193479,100.509876 C179.231361,106.11344 155.419956,109.491546 144.307634,105.095518 C141.238897,87.0922592 132.416901,52.5277995 143.554172,41.63004 Z" id="Path" fill="url(#linearGradient-6)"></path>
                <path d="M128.250404,17.3146637 C128.250404,17.3146637 143.718836,11.8258654 147.057023,21.7206717 C147.14684,19.1359467 152.146636,20.0590628 150.694599,26.4809568 L151.49796,28.052749 C154.826168,24.6147654 153.608652,6.85101821 145.355496,6.1873726 C145.355496,6.1873726 137.726066,0.0299388997 126.73849,8.57250495 C126.73849,8.57250495 123.48014,14.6002034 128.250404,17.3146637 Z" id="Path" fill="#141414"></path>
                <path d="M164.376677,60.052443 L166.402542,59.6782067 L154.387064,85.1861493 C152.532463,89.1262931 149.500529,92.3935993 145.709773,94.5370656 L143.978306,95.5350289 L143.514253,90.2408335 L164.376677,60.052443 Z" id="Path" fill="#C6C6C6" style="mix-blend-mode: multiply;"></path>
                <path d="M101.385232,107.251118 C116.040323,97.9850289 119.288694,91.0042754 135.570465,79.5376769 C138.928612,77.3122186 151.652644,45.4372701 151.652644,45.4372701 C158.748164,39.7339097 167.200913,49.3143576 166.402542,59.6831965 L154.252339,82.4966381 C151.487722,87.6818791 147.108373,91.8247436 141.777797,94.2975544 L104.244397,112.739917 L101.385232,107.251118 Z" id="Path" fill="url(#linearGradient-7)"></path>
                <path d="M220.60193,194.113846 C220.60193,196.259467 159.476677,196.259467 159.476677,194.113846 L159.476677,190.940323 C159.476677,192.936249 220.60193,192.936249 220.60193,190.940323 L220.60193,194.113846 Z" id="Path" fill="#2C2C2C"></path>
                <path d="M220.60193,202.860995 C220.60193,205.006616 159.476677,205.006616 159.476677,202.860995 L159.476677,199.687471 C159.476677,201.683398 220.60193,201.683398 220.60193,199.687471 L220.60193,202.860995 Z" id="Path" fill="#2C2C2C"></path>
                <path d="M57.3101815,146.40122 C55.3243838,145.717505 53.1927423,145.572871 51.1327886,145.982075 C52.9110539,145.401703 54.4159031,144.191435 55.364153,142.57902 C55.1595706,144.395313 56.1924626,145.622808 57.3101815,146.40122 Z" id="Path" fill="#D1D0CF" style="mix-blend-mode: multiply;"></path>
                <circle id="Oval" cx="189.490424" cy="157.638287" r="4.08166999"></circle>
                <path d="M192.758754,157.648266 C192.758754,158.970182 191.962451,160.161934 190.741159,160.667809 C189.519868,161.173685 188.114101,160.89406 187.179365,159.959324 C186.24463,159.024589 185.965005,157.618822 186.470881,156.39753 C186.976756,155.176239 188.168508,154.379936 189.490424,154.379936 C191.295472,154.379936 192.758754,155.843217 192.758754,157.648266 Z" id="Path" fill="#2C2C2C"></path>
                <path d="M141.932482,0 C130.231362,0 126.104783,6.2472504 125.256514,13.0184316 C125.166483,13.7517582 125.395195,14.4884919 125.884685,15.0419115 C126.374175,15.5953311 127.077458,15.9123149 127.81629,15.9125252 L142.50631,15.9125252 L145.001219,16.9803459 C145.001219,18.1230139 144.736758,31.0865575 136.653256,37.2739301 C136.18771,37.6403735 136.003904,38.2605972 136.19462,38.821526 C136.385336,39.3824547 136.909099,39.7621053 137.501524,39.7688385 C137.806995,39.7688385 138.103759,39.6670725 138.344803,39.4794291 C146.32851,33.3718935 147.575964,22.0150709 147.765577,18.1579427 L148.76354,18.5970465 L150.155699,32.9178202 C156.063642,30.038696 159.137369,23.2275963 159.137369,16.3316698 C159.137369,7.31507116 152.201524,0 141.932482,0 Z" id="Path" fill="url(#linearGradient-8)"></path>
            </g>
        </g>
    </g>
</svg>